<svg width="80" height="80" viewBox="0 0 80 80" fill="none" xmlns="http://www.w3.org/2000/svg">
<g clip-path="url(#paint0_angular_6012_140409_clip_path)" data-figma-skip-parse="true"><g transform="matrix(0.0300033 -0.00363635 -0.00359689 -0.0296783 39.9967 40)"><foreignObject x="-1131.78" y="-1131.78" width="2263.56" height="2263.56"><div xmlns="http://www.w3.org/1999/xhtml" style="background:conic-gradient(from 90deg,rgba(6, 123, 239, 1) 0deg,rgba(6, 123, 239, 1) 73.125deg,rgba(33, 143, 251, 1) 215.625deg,rgba(34, 143, 252, 0) 360deg);height:100%;width:100%;opacity:1"></div></foreignObject></g></g><path fill-rule="evenodd" clip-rule="evenodd" d="M39.9967 15.4545C49.8231 15.4545 58.3064 21.2287 62.2283 29.5811C62.8685 30.9445 64.4927 31.5308 65.8561 30.8906C67.2195 30.2504 67.8058 28.6261 67.1656 27.2627C62.3787 17.0682 52.0159 10 39.9967 10C23.4282 10 9.9967 23.4315 9.9967 40C9.9967 56.5685 23.4282 70 39.9967 70C56.5652 70 69.9967 56.5685 69.9967 40C69.9967 38.4938 68.7757 37.2727 67.2694 37.2727C65.7632 37.2727 64.5422 38.4938 64.5422 40C64.5422 53.5561 53.5528 64.5455 39.9967 64.5455C26.4406 64.5455 15.4512 53.5561 15.4512 40C15.4512 26.4439 26.4406 15.4545 39.9967 15.4545Z" data-figma-gradient-fill="{&#34;type&#34;:&#34;GRADIENT_ANGULAR&#34;,&#34;stops&#34;:[{&#34;color&#34;:{&#34;r&#34;:0.023529412224888802,&#34;g&#34;:0.48235294222831726,&#34;b&#34;:0.93725490570068359,&#34;a&#34;:1.0},&#34;position&#34;:0.0},{&#34;color&#34;:{&#34;r&#34;:0.023529412224888802,&#34;g&#34;:0.48235294222831726,&#34;b&#34;:0.93725490570068359,&#34;a&#34;:1.0},&#34;position&#34;:0.2031250},{&#34;color&#34;:{&#34;r&#34;:0.13175128400325775,&#34;g&#34;:0.56161046028137207,&#34;b&#34;:0.98779553174972534,&#34;a&#34;:1.0},&#34;position&#34;:0.59895831346511841},{&#34;color&#34;:{&#34;r&#34;:0.13333334028720856,&#34;g&#34;:0.56078433990478516,&#34;b&#34;:0.98823529481887817,&#34;a&#34;:0.0},&#34;position&#34;:1.0}],&#34;stopsVar&#34;:[{&#34;color&#34;:{&#34;r&#34;:0.023529412224888802,&#34;g&#34;:0.48235294222831726,&#34;b&#34;:0.93725490570068359,&#34;a&#34;:1.0},&#34;position&#34;:0.0},{&#34;color&#34;:{&#34;r&#34;:0.023529412224888802,&#34;g&#34;:0.48235294222831726,&#34;b&#34;:0.93725490570068359,&#34;a&#34;:1.0},&#34;position&#34;:0.2031250},{&#34;color&#34;:{&#34;r&#34;:0.13175128400325775,&#34;g&#34;:0.56161046028137207,&#34;b&#34;:0.98779553174972534,&#34;a&#34;:1.0},&#34;position&#34;:0.59895831346511841},{&#34;color&#34;:{&#34;r&#34;:0.13333334028720856,&#34;g&#34;:0.56078433990478516,&#34;b&#34;:0.98823529481887817,&#34;a&#34;:0.0},&#34;position&#34;:1.0}],&#34;transform&#34;:{&#34;m00&#34;:60.006603240966797,&#34;m01&#34;:-7.1937832832336426,&#34;m02&#34;:13.590292930603027,&#34;m10&#34;:-7.2726955413818359,&#34;m11&#34;:-59.356613159179688,&#34;m12&#34;:73.314636230468750},&#34;opacity&#34;:1.0,&#34;blendMode&#34;:&#34;NORMAL&#34;,&#34;visible&#34;:true}"/>
<defs>
<clipPath id="paint0_angular_6012_140409_clip_path"><path fill-rule="evenodd" clip-rule="evenodd" d="M39.9967 15.4545C49.8231 15.4545 58.3064 21.2287 62.2283 29.5811C62.8685 30.9445 64.4927 31.5308 65.8561 30.8906C67.2195 30.2504 67.8058 28.6261 67.1656 27.2627C62.3787 17.0682 52.0159 10 39.9967 10C23.4282 10 9.9967 23.4315 9.9967 40C9.9967 56.5685 23.4282 70 39.9967 70C56.5652 70 69.9967 56.5685 69.9967 40C69.9967 38.4938 68.7757 37.2727 67.2694 37.2727C65.7632 37.2727 64.5422 38.4938 64.5422 40C64.5422 53.5561 53.5528 64.5455 39.9967 64.5455C26.4406 64.5455 15.4512 53.5561 15.4512 40C15.4512 26.4439 26.4406 15.4545 39.9967 15.4545Z"/></clipPath></defs>
</svg>
