<svg width="30" height="30" viewBox="0 0 30 30" fill="none" xmlns="http://www.w3.org/2000/svg">
<g id="ProcessOn-logo-&#230;&#150;&#185; 1" clip-path="url(#clip0_32949_63593)">
<g id="Group">
<g id="Group_2">
<path id="Vector" d="M24.9839 29.904H5.01585C2.26785 29.904 0.0478516 27.684 0.0478516 24.936V4.968C0.0478516 2.22 2.26785 0 5.01585 0H24.9839C27.7319 0 29.9519 2.22 29.9519 4.968V24.936C29.9519 27.684 27.7319 29.904 24.9839 29.904Z" fill="#067BEF"/>
<g id="Group_3">
<path id="Vector_2" d="M16.2242 14.793C16.2242 19.869 13.1402 22.773 8.96418 22.773C4.69219 22.773 1.99219 19.509 1.99219 15.057C1.99219 10.401 4.92019 7.125 9.18018 7.125C13.6202 7.137 16.2242 10.485 16.2242 14.793ZM4.92019 15.021C4.92019 18.105 6.46819 20.553 9.12018 20.553C11.7962 20.553 13.2962 18.081 13.2962 14.913C13.2962 12.057 11.8802 9.357 9.12018 9.357C6.38419 9.357 4.92019 11.901 4.92019 15.021Z" fill="white"/>
<path id="Vector_3" d="M18.0957 14.8477C18.0957 13.5877 18.0717 12.5317 18.0117 11.5837H20.4357L20.5677 13.2277H20.6397C21.1077 12.3757 22.3077 11.3438 24.1197 11.3438C26.0277 11.3438 28.0077 12.5797 28.0077 16.0477V22.5397H25.2477V16.3597C25.2477 14.7877 24.6597 13.5997 23.1597 13.5997C22.0557 13.5997 21.2997 14.3917 20.9997 15.2197C20.9157 15.4717 20.8917 15.8077 20.8917 16.1197V22.5517H18.1077L18.0957 14.8477Z" fill="white"/>
</g>
</g>
</g>
</g>
<defs>
<clipPath id="clip0_32949_63593">
<rect width="30" height="30" fill="white"/>
</clipPath>
</defs>
</svg>
